<?xml version="1.0" encoding="utf-8"?>
<!-- Generator: Adobe Illustrator 19.1.0, SVG Export Plug-In . SVG Version: 6.00 Build 0)  -->
<svg version="1.0" id="Layer_1" xmlns="http://www.w3.org/2000/svg" xmlns:xlink="http://www.w3.org/1999/xlink" x="0px" y="0px"
	 viewBox="-10 183.8 437.2 94.1" enable-background="new -10 183.8 437.2 94.1" xml:space="preserve">
<g>
	<g>
		<g>
			<path fill="#595959" d="M134.5,255.7l-5-4.9c-2.5,1.9-5.8,3-9.5,3c-4.5,0-8.4-1.5-11.3-4.5c-4.3-4.3-4.5-8.5-4.5-18.4
				c0-9.9,0.2-14.1,4.5-18.4c2.9-2.9,6.8-4.5,11.3-4.5s8.3,1.5,11.3,4.5c4.2,4.2,4.6,8,4.6,18.4c0,8.5-0.1,12.8-3,16.6l4.9,4.9
				L134.5,255.7z M120,212.9c-3,0-5.5,1-7.4,3c-2.7,2.7-3,5.6-3,15c0,9.4,0.4,12.3,3,15c1.9,2,4.5,3,7.4,3c2.3,0,4.2-0.6,5.8-1.8
				l-5.6-5.6l3.3-3.3l5.3,5.4c1.4-2.5,1.6-6,1.6-12.6c0-9.4-0.4-12.3-3-15C125.5,213.9,123,212.9,120,212.9z M153.4,253.8
				c-3.4,0-6.2-1-8.1-3c-2.2-2.1-3.2-5-3.2-8.8v-19.9h5.1v19.2c0,5.1,2.5,7.8,7.2,7.8s7.4-2.9,7.4-7.8v-19.2h5.1v31.3h-5.1v-2.9
				C159.6,252.6,156.7,253.8,153.4,253.8z M179.4,253.4h-5.1v-16.6v-14.7h5.1v14.5V253.4z M179.8,214h-5.7v-5.7h5.7V214z
				 M211.7,253.4h-5.1v-19.2c0-5.1-2.6-7.8-7.2-7.8c-4.6,0-7.3,2.9-7.3,7.8v19.2H187v-31.3h5.1v2.9c2.1-2.1,5-3.3,8.3-3.3
				c3.4,0,6.1,1,8.1,3c2.2,2.1,3.3,5,3.3,8.8v19.9H211.7z M241.5,253.4h-5.1v-17.1v-14.2h5.1v14.2V253.4z M241.9,214h-5.7v-5.7h5.7
				V214z M275.6,253.8c-8.9,0-13.7-5.7-13.7-16c0-10,4.8-16,12.9-16s12.9,5.7,12.9,15.2v2.3H267c0.1,6.4,3.2,10,8.7,10
				c3.3,0,5.3-0.9,7.8-3.4l0.2-0.2l3.5,3.1L287,249C284.1,251.9,281.2,253.8,275.6,253.8z M267.1,235.3h15.6
				c-0.2-2.2-0.3-3.2-0.9-4.7c-1.3-2.8-3.8-4.4-6.9-4.4s-5.6,1.6-6.9,4.4C267.3,232.1,267.2,233.1,267.1,235.3z M303.5,253.8
				c-5.7,0-9.6-1.4-12.8-4.5l-0.2-0.2l3.5-3.5l0.2,0.2c2.2,2.3,5.3,3.5,9.3,3.5c2.9,0,7.9-0.7,7.9-5.1c0-2.6-1.4-3.9-4.8-4.2
				l-5.1-0.4c-6.3-0.5-9.5-3.4-9.5-8.5c0-5.6,4.6-9.3,11.6-9.3c4.7,0,8.4,1.1,11.2,3.4l0.3,0.2l-3.4,3.4l-0.2-0.2
				c-2-1.6-4.7-2.4-8-2.4c-4.2,0-6.5,1.7-6.5,4.7c0,2.6,1.6,3.8,5.2,4.2l4.8,0.4c4,0.4,9.3,1.7,9.3,8.6
				C316.3,250.1,311.4,253.8,303.5,253.8z M327.5,253.4h-5.4V233v-24.6h5.4V233V253.4z M375.3,253.4h-5.4v-32.6l-11.6,25.6h-4.5
				L342,220.8v32.6h-5.4v-45h5.3l0.1,0.2l14.2,30.8l13.9-31h5.3v45H375.3z M396.1,253.8c-6.8,0-11.2-1.7-15.4-6l-0.2-0.2l3.6-3.6
				l0.2,0.2c3.4,3.4,6.6,4.7,11.9,4.7c6.5,0,10.2-2.9,10.2-7.9c0-2.4-0.7-4.1-2.1-5.3c-1.3-1.2-2.4-1.6-5.6-2.1l-5.2-0.7
				c-3.6-0.6-6.3-1.7-8.3-3.4c-2.3-2.1-3.5-5-3.5-8.6c0-7.8,5.7-12.8,14.5-12.8c5.6,0,9.5,1.4,13.4,4.9l0.3,0.2l-3.5,3.5l-0.2-0.2
				c-2.8-2.6-5.8-3.8-10.1-3.8c-5.6,0-9.1,3.1-9.1,8c0,2.2,0.6,3.9,1.9,4.9c1.2,1.1,3.2,1.8,5.6,2.2l5.2,0.8
				c4.2,0.6,6.2,1.4,8.2,3.3c2.5,2.2,3.8,5.3,3.8,9C411.8,248.7,405.6,253.8,396.1,253.8z M228.9,253.4h-1.2c-5,0-8.2-3.4-8.2-8.5
				v-18.7h-3.9v-4.1h3.9v-9.4h5.1v9.4h6.5v4.1h-6.5v18.6c0,2.8,1.3,4.2,3.9,4.2h0.3v0.3L228.9,253.4L228.9,253.4z M258.1,253.4H257
				c-5.1,0-8.1-3.2-8.1-8.5v-36.5h5.1v36.4c0,3,1,4.2,3.8,4.2h0.3v0.3L258.1,253.4L258.1,253.4z"/>
		</g>
		<path fill="#323232" d="M418.1,209.1v5.5H417v-5.5h-1.8V208h4.7v1.1H418.1z M426.1,214.6v-4.3l-1.4,2.8h-1.1l-1.4-2.8v4.3H421V208
			h1.2l1.9,3.7l1.9-3.7h1.2v6.6H426.1z"/>
	</g>
	<g>
		<path fill="#B0E1F5" d="M77.9,207.4l-8,4.6c-3.3-5.7-8.1-10.5-13.8-13.8l4.7-8C67.9,194.3,73.8,200.3,77.9,207.4z M-0.7,230.9H-10
			c0,8.6,2.3,16.7,6.4,23.7l8-4.7C1.2,244.3-0.7,237.8-0.7,230.9z M22.7,205.9l-4.5-7.8c-11.3,6.6-18.9,18.8-18.9,32.8h9
			C8.2,220.2,14,210.9,22.7,205.9z M12.2,245.4l-7.7,4.5c6.5,11.3,18.6,18.8,32.6,18.8v-9C26.5,259.8,17.2,254,12.2,245.4z"/>
		<path fill="#1DAAE3" d="M-3.6,254.6l8-4.7c6.6,11.3,18.7,18.8,32.7,18.8c6.9,0,13.4-1.9,18.9-5.1l4.7,8c-6.9,4-15,6.3-23.6,6.3
			C19.7,278,4.6,268.6-3.6,254.6z M37.1,193.1c6.9,0,13.4,1.9,19,5.1l4.7-8c-7-4-15-6.4-23.7-6.4c-26,0-47.1,21.1-47.1,47.1h9.3
			C-0.7,210,16.2,193.1,37.1,193.1z"/>
		<path fill="#864599" d="M69.9,212l8-4.6c4,6.9,6.3,14.9,6.3,23.5c0,8.6-2.3,16.6-6.3,23.5l-8-4.6c3.2-5.6,5.1-12,5.1-18.9
			C74.9,224,73.1,217.6,69.9,212z M63.9,257.6l-6.4-6.3c-5.2,5.2-12.4,8.5-20.4,8.5c-15.9,0-28.9-13-28.9-28.9S21.1,202,37.1,202
			S66,215,66,230.9c0,5.3-1.4,10.2-3.9,14.4l7.8,4.5C68.2,252.7,66.2,255.3,63.9,257.6z M56.8,230.9c0-10.9-8.8-19.7-19.7-19.7
			s-19.7,8.8-19.7,19.7c0,10.9,8.8,19.7,19.7,19.7S56.8,241.8,56.8,230.9z"/>
	</g>
</g>
</svg>
